<svg width="500" height="500" viewBox="0 0 500 500" fill="none" xmlns="http://www.w3.org/2000/svg">
<path d="M500 250C500 111.891 388.016 0 250 0C111.891 0 0 111.891 0 250C0 374.75 91.3906 478.187 210.938 496.922V322.281H147.453V250.016H210.938V194.906C210.938 132.266 248.203 97.6719 305.328 97.6719C332.688 97.6719 361.328 102.547 361.328 102.547V164.062H329.75C298.75 164.062 289.062 183.359 289.062 203.125V250H358.391L347.25 322.266H289.062V496.906C408.516 478.172 500 374.734 500 249.984V250Z" fill="black"/>
</svg>
