<svg width="500" height="500" viewBox="0 0 500 500" fill="none" xmlns="http://www.w3.org/2000/svg">
<path d="M290.075 245.825L233.925 219.625C229.025 217.35 225 219.9 225 225.325V274.675C225 280.1 229.025 282.65 233.925 280.375L290.05 254.175C294.975 251.875 294.975 248.125 290.075 245.825ZM250 10C117.45 10 10 117.45 10 250C10 382.55 117.45 490 250 490C382.55 490 490 382.55 490 250C490 117.45 382.55 10 250 10ZM250 347.5C127.15 347.5 125 336.425 125 250C125 163.575 127.15 152.5 250 152.5C372.85 152.5 375 163.575 375 250C375 336.425 372.85 347.5 250 347.5Z" fill="black"/>
</svg>
